<svg width="22" height="22" viewBox="0 0 22 22" fill="none" xmlns="http://www.w3.org/2000/svg">
<path d="M7.81194 9.93563V7.10416C7.81194 6.16547 8.18483 5.26522 8.84859 4.60147C9.51234 3.93771 10.4126 3.56482 11.3513 3.56482C12.29 3.56482 13.1902 3.93771 13.854 4.60147C14.5177 5.26522 14.8906 6.16547 14.8906 7.10416V9.93563M6.3962 9.93563H16.3064C17.0882 9.93563 17.7221 10.5695 17.7221 11.3514V16.3064C17.7221 17.0883 17.0882 17.7222 16.3064 17.7222H6.3962C5.61432 17.7222 4.98047 17.0883 4.98047 16.3064V11.3514C4.98047 10.5695 5.61432 9.93563 6.3962 9.93563Z" stroke="#104C81" stroke-width="1.4" stroke-linecap="round" stroke-linejoin="round"/>
</svg>
