<svg width="27" height="28" viewBox="0 0 27 28" fill="none" xmlns="http://www.w3.org/2000/svg">
<path fill-rule="evenodd" clip-rule="evenodd" d="M9.35571 4.05415C9.3015 4.4694 9.29996 4.94129 9.29996 5.52124V6.54215C9.29996 7.07075 8.87145 7.49926 8.34285 7.49926C7.81426 7.49926 7.38574 7.07075 7.38574 6.54215L7.38574 5.48807C7.38571 4.94759 7.38568 4.35725 7.45761 3.80634C7.53213 3.23552 7.69183 2.6295 8.06595 2.08819C8.853 0.94944 10.2947 0.480469 12.4265 0.480469H14.4683C16.6001 0.480469 18.0419 0.94944 18.8289 2.08819C19.203 2.6295 19.3627 3.23552 19.4372 3.80634C19.5092 4.35725 19.5091 4.94759 19.5091 5.48808L19.5091 6.54215C19.5091 7.07075 19.0806 7.49926 18.552 7.49926C18.0234 7.49926 17.5949 7.07075 17.5949 6.54215V5.52124C17.5949 4.94129 17.5934 4.4694 17.5391 4.05415C17.4861 3.64752 17.3905 3.3738 17.2542 3.17654C17.0203 2.83816 16.4202 2.39468 14.4683 2.39468H12.4265C10.4746 2.39468 9.87454 2.83816 9.64066 3.17654C9.50433 3.3738 9.4088 3.64752 9.35571 4.05415Z" fill="#00C2FF"/>
<path fill-rule="evenodd" clip-rule="evenodd" d="M1.16261 7.58412C2.29252 6.24078 4.22973 5.58411 7.06664 5.58411H19.8281C22.665 5.58411 24.6022 6.24078 25.7321 7.58412C26.851 8.91441 26.9575 10.6621 26.7782 12.2917L25.8206 22.5057C25.68 23.8176 25.3507 25.256 24.1792 26.3262C23.0165 27.3884 21.2151 27.9166 18.5519 27.9166H8.34278C5.67966 27.9166 3.87823 27.3884 2.71548 26.3262C1.54407 25.256 1.21478 23.8176 1.07421 22.5056L1.07286 22.493L0.11657 12.2917C-0.0627655 10.6621 0.0436631 8.91442 1.16261 7.58412ZM2.62753 8.81629C2.02553 9.53199 1.85609 10.6074 2.02007 12.0893L2.02183 12.1052L2.9782 22.3079C3.10587 23.4939 3.37018 24.3315 4.00659 24.9129C4.65278 25.5033 5.87581 26.0024 8.34278 26.0024H18.5519C21.0189 26.0024 22.2419 25.5033 22.8881 24.9129C23.5245 24.3315 23.7888 23.4939 23.9165 22.3079L24.8745 12.0892C25.0385 10.6074 24.8692 9.53199 24.2672 8.81629C23.6743 8.11142 22.4403 7.49832 19.8281 7.49832H7.06664C4.45442 7.49832 3.22041 8.11142 2.62753 8.81629Z" fill="#003569"/>
<path fill-rule="evenodd" clip-rule="evenodd" d="M26.5362 12.3601C26.8471 12.7875 26.7526 13.3861 26.3251 13.697C23.2418 15.9395 19.719 17.2733 16.1193 17.7266C15.5948 17.7926 15.1161 17.421 15.0501 16.8965C14.984 16.3721 15.3557 15.8934 15.8801 15.8273C19.1715 15.4129 22.3868 14.1944 25.1992 12.1489C25.6267 11.838 26.2253 11.9326 26.5362 12.3601Z" fill="#003569"/>
<path fill-rule="evenodd" clip-rule="evenodd" d="M0.687397 12.7276C0.985956 12.2914 1.5816 12.1799 2.01781 12.4784C4.76011 14.3554 7.85251 15.4866 11.0017 15.8392C11.527 15.898 11.9051 16.3716 11.8463 16.8969C11.7875 17.4222 11.314 17.8004 10.7887 17.7416C7.32739 17.354 3.93698 16.1116 0.936629 14.0581C0.500423 13.7595 0.388837 13.1639 0.687397 12.7276Z" fill="#003569"/>
<path fill-rule="evenodd" clip-rule="evenodd" d="M11.8532 15.1555C11.8522 15.2466 11.8522 15.3504 11.8522 15.4735V16.7879C11.8522 17.1472 11.8553 17.4114 11.8865 17.6356C11.9166 17.8512 11.9642 17.9561 12.0046 18.0131C12.0496 18.0766 12.2741 18.3448 13.4474 18.3448C14.626 18.3448 14.8478 18.0741 14.8919 18.0111C14.9325 17.9531 14.98 17.8466 15.0095 17.6285C15.0402 17.4017 15.0426 17.1362 15.0426 16.7752V15.4735C15.0426 15.3504 15.0426 15.2466 15.0416 15.1555C14.9505 15.1545 14.8466 15.1545 14.7235 15.1545H12.1713C12.0482 15.1545 11.9443 15.1545 11.8532 15.1555ZM12.1293 13.2402C12.1433 13.2402 12.1573 13.2402 12.1713 13.2402H14.7235C14.7375 13.2402 14.7515 13.2402 14.7655 13.2402C15.0477 13.2402 15.3336 13.2401 15.567 13.266C15.8049 13.2925 16.2 13.3631 16.5169 13.6801C16.8339 13.9971 16.9046 14.3922 16.931 14.63C16.9569 14.8634 16.9569 15.1494 16.9568 15.4316C16.9568 15.4456 16.9568 15.4595 16.9568 15.4735V16.7895C16.9568 17.1209 16.9568 17.5131 16.9065 17.8851C16.8542 18.2712 16.7398 18.7094 16.4598 19.1092C15.8626 19.9619 14.8083 20.259 13.4474 20.259C12.094 20.259 11.0423 19.9657 10.4429 19.12C10.161 18.7224 10.0444 18.2857 9.99061 17.8995C9.93806 17.5219 9.938 17.1242 9.938 16.7879V15.4735C9.938 15.4595 9.938 15.4456 9.93799 15.4316C9.93793 15.1494 9.93787 14.8634 9.96379 14.63C9.99022 14.3922 10.0609 13.9971 10.3778 13.6801C10.6948 13.3631 11.0899 13.2925 11.3278 13.266C11.5611 13.2401 11.8471 13.2402 12.1293 13.2402Z" fill="#00C2FF"/>
</svg>
