<svg width="29" height="29" viewBox="0 0 29 29" fill="none" xmlns="http://www.w3.org/2000/svg">
<path fill-rule="evenodd" clip-rule="evenodd" d="M5.22643 5.46129C6.64227 4.04545 8.74394 3.52197 11.3906 3.52197H17.5161C20.1628 3.52197 22.2645 4.04545 23.6803 5.46129C25.0961 6.87713 25.6196 8.9788 25.6196 11.6255C25.6196 12.1541 25.1911 12.5826 24.6625 12.5826C24.1339 12.5826 23.7054 12.1541 23.7054 11.6255C23.7054 9.1676 23.208 7.69606 22.3268 6.81485C21.4455 5.93363 19.974 5.43619 17.5161 5.43619H11.3906C8.93273 5.43619 7.4612 5.93363 6.57998 6.81485C5.69876 7.69606 5.20133 9.1676 5.20133 11.6255V17.751C5.20133 20.2089 5.69876 21.6804 6.57998 22.5616C7.4612 23.4428 8.93273 23.9403 11.3906 23.9403C11.9192 23.9403 12.3477 24.3688 12.3477 24.8974C12.3477 25.426 11.9192 25.8545 11.3906 25.8545C8.74394 25.8545 6.64227 25.331 5.22643 23.9152C3.81059 22.4993 3.28711 20.3977 3.28711 17.751V11.6255C3.28711 8.9788 3.81059 6.87713 5.22643 5.46129Z" fill="#003569"/>
<path fill-rule="evenodd" clip-rule="evenodd" d="M8.43243 8.66754C9.41757 7.6824 10.8493 7.35034 12.5388 7.35034H16.3673C18.2306 7.35034 19.7813 7.75068 20.7569 8.99227C21.0835 9.40792 21.0113 10.0096 20.5956 10.3362C20.18 10.6628 19.5783 10.5906 19.2517 10.1749C18.8235 9.62991 18.0261 9.26456 16.3673 9.26456H12.5388C11.0381 9.26456 10.2365 9.57058 9.78599 10.0211C9.33547 10.4716 9.02945 11.2732 9.02945 12.774V16.6024C9.02945 18.2615 9.39501 19.0627 9.9323 19.491C10.3456 19.8204 10.4136 20.4226 10.0842 20.836C9.75468 21.2493 9.1525 21.3173 8.73915 20.9878C7.51536 20.0123 7.11523 18.4655 7.11523 16.6024V12.774C7.11523 11.0844 7.44729 9.65268 8.43243 8.66754Z" fill="#00C2FF"/>
<path fill-rule="evenodd" clip-rule="evenodd" d="M9.3614 0.96875C9.89 0.96875 10.3185 1.39726 10.3185 1.92586V4.47815C10.3185 5.00674 9.89 5.43525 9.3614 5.43525C8.83281 5.43525 8.4043 5.00674 8.4043 4.47815V1.92586C8.4043 1.39726 8.83281 0.96875 9.3614 0.96875Z" fill="#003569"/>
<path fill-rule="evenodd" clip-rule="evenodd" d="M14.4527 0.96875C14.9813 0.96875 15.4098 1.39726 15.4098 1.92586V4.47815C15.4098 5.00674 14.9813 5.43525 14.4527 5.43525C13.9241 5.43525 13.4956 5.00674 13.4956 4.47815V1.92586C13.4956 1.39726 13.9241 0.96875 14.4527 0.96875Z" fill="#003569"/>
<path fill-rule="evenodd" clip-rule="evenodd" d="M19.5577 0.96875C20.0863 0.96875 20.5148 1.39726 20.5148 1.92586V4.47815C20.5148 5.00674 20.0863 5.43525 19.5577 5.43525C19.0291 5.43525 18.6006 5.00674 18.6006 4.47815V1.92586C18.6006 1.39726 19.0291 0.96875 19.5577 0.96875Z" fill="#003569"/>
<path fill-rule="evenodd" clip-rule="evenodd" d="M23.7051 9.58272C23.7051 9.05412 24.1336 8.62561 24.6622 8.62561H27.2145C27.7431 8.62561 28.1716 9.05412 28.1716 9.58272C28.1716 10.1113 27.7431 10.5398 27.2145 10.5398H24.6622C24.1336 10.5398 23.7051 10.1113 23.7051 9.58272Z" fill="#003569"/>
<path fill-rule="evenodd" clip-rule="evenodd" d="M9.3614 23.9393C9.89 23.9393 10.3185 24.3678 10.3185 24.8964V27.4487C10.3185 27.9773 9.89 28.4058 9.3614 28.4058C8.83281 28.4058 8.4043 27.9773 8.4043 27.4487V24.8964C8.4043 24.3678 8.83281 23.9393 9.3614 23.9393Z" fill="#003569"/>
<path fill-rule="evenodd" clip-rule="evenodd" d="M0.734375 9.58272C0.734375 9.05412 1.16289 8.62561 1.69148 8.62561H4.24377C4.77237 8.62561 5.20088 9.05412 5.20088 9.58272C5.20088 10.1113 4.77237 10.5398 4.24377 10.5398H1.69148C1.16289 10.5398 0.734375 10.1113 0.734375 9.58272Z" fill="#003569"/>
<path fill-rule="evenodd" clip-rule="evenodd" d="M0.734375 14.6864C0.734375 14.1578 1.16289 13.7292 1.69148 13.7292H4.24377C4.77237 13.7292 5.20088 14.1578 5.20088 14.6864C5.20088 15.215 4.77237 15.6435 4.24377 15.6435H1.69148C1.16289 15.6435 0.734375 15.215 0.734375 14.6864Z" fill="#003569"/>
<path fill-rule="evenodd" clip-rule="evenodd" d="M0.734375 19.7928C0.734375 19.2642 1.16289 18.8357 1.69148 18.8357H4.24377C4.77237 18.8357 5.20088 19.2642 5.20088 19.7928C5.20088 20.3214 4.77237 20.7499 4.24377 20.7499H1.69148C1.16289 20.7499 0.734375 20.3214 0.734375 19.7928Z" fill="#003569"/>
<path fill-rule="evenodd" clip-rule="evenodd" d="M20.4637 19.9967C19.8717 19.9967 19.3918 20.4767 19.3918 21.0687C19.3918 21.6607 19.8717 22.1407 20.4637 22.1407C21.0557 22.1407 21.5357 21.6607 21.5357 21.0687C21.5357 20.4767 21.0557 19.9967 20.4637 19.9967ZM17.4775 21.0687C17.4775 19.4195 18.8145 18.0825 20.4637 18.0825C22.1129 18.0825 23.4499 19.4195 23.4499 21.0687C23.4499 22.7179 22.1129 24.0549 20.4637 24.0549C18.8145 24.0549 17.4775 22.7179 17.4775 21.0687Z" fill="#00C2FF"/>
<path fill-rule="evenodd" clip-rule="evenodd" d="M18.4418 15.7376C18.3802 15.6342 18.27 15.6262 18.2097 15.6621L18.2018 15.6668L17.0281 16.3503C16.8817 16.4327 16.8252 16.6309 16.9134 16.7821L16.9152 16.7852C17.3236 17.4915 17.4806 18.3543 17.0503 19.1024C16.6194 19.8512 15.7938 20.1485 14.9764 20.1485C14.8031 20.1485 14.6574 20.2942 14.6574 20.4675V21.6543C14.6574 21.8502 14.8089 21.9762 14.959 21.9735L14.9764 21.9732C15.7938 21.9732 16.6194 22.2706 17.0503 23.0194C17.4806 23.7675 17.3236 24.6303 16.9152 25.3366L16.9134 25.3397C16.8306 25.4817 16.8711 25.6796 17.0407 25.7788C17.0405 25.7787 17.0408 25.7789 17.0407 25.7788L18.1969 26.4522C18.28 26.4983 18.3905 26.4705 18.4418 26.3842L18.4435 26.3813L18.5165 26.2598C18.9246 25.558 19.591 24.9946 20.4511 24.9946C21.3111 24.9946 21.9775 25.558 22.3857 26.2598L22.4603 26.3842C22.5219 26.4876 22.6321 26.4956 22.6925 26.4597L22.7003 26.455L23.874 25.7715C24.0204 25.6891 24.0769 25.4909 23.9888 25.3397L23.987 25.3366C23.5785 24.6303 23.4215 23.7675 23.8519 23.0194C24.2827 22.2706 25.1084 21.9733 25.9257 21.9733C26.099 21.9733 26.2448 21.8276 26.2448 21.6543V20.4675C26.2448 20.2942 26.099 20.1485 25.9257 20.1485C25.1084 20.1485 24.2827 19.8512 23.8519 19.1024C23.4215 18.3543 23.5785 17.4915 23.987 16.7852L23.9888 16.7821C24.0716 16.6401 24.031 16.4421 23.8613 16.3429C23.8612 16.3429 23.8613 16.3429 23.8613 16.3429L22.7052 15.6696C22.6221 15.6235 22.5117 15.6513 22.4603 15.7376L22.4586 15.7405L22.3857 15.862C21.9775 16.5638 21.3111 17.1272 20.4511 17.1272C19.591 17.1272 18.9246 16.5638 18.5165 15.862L18.4418 15.7376ZM20.0857 14.7569C19.5097 13.791 18.2454 13.4166 17.2351 14.0146L16.0825 14.6859C15.0099 15.2944 14.6353 16.6734 15.2588 17.7447C15.3977 17.9854 15.3953 18.1084 15.3889 18.1464C15.359 18.171 15.2538 18.2342 14.9764 18.2342C13.7459 18.2342 12.7432 19.237 12.7432 20.4675V21.6543C12.7432 22.8842 13.7344 23.9043 14.983 23.8876C15.2554 23.8886 15.3592 23.951 15.3889 23.9754C15.3953 24.0134 15.3977 24.1364 15.2588 24.377C14.6286 25.4597 15.022 26.8173 16.0766 27.4325L17.2384 28.1092L17.2453 28.1131C18.2334 28.6777 19.499 28.3487 20.0857 27.3649C20.086 27.3644 20.0864 27.3638 20.0867 27.3633L20.1615 27.2386L20.1694 27.2253C20.3075 26.9865 20.4143 26.9258 20.4511 26.9117C20.4879 26.9258 20.5947 26.9865 20.7328 27.2253L20.8154 27.3633C20.8158 27.3638 20.8161 27.3644 20.8164 27.3649C21.3925 28.3308 22.6567 28.7052 23.667 28.1073L24.8197 27.4359C25.8922 26.8275 26.2668 25.4484 25.6434 24.3771C25.5044 24.1365 25.5069 24.0134 25.5133 23.9754C25.5432 23.9508 25.6484 23.8876 25.9257 23.8876C27.1562 23.8876 28.159 22.8848 28.159 21.6543V20.4675C28.159 19.237 27.1562 18.2342 25.9257 18.2342C25.6484 18.2342 25.5432 18.171 25.5133 18.1464C25.5069 18.1084 25.5044 17.9853 25.6434 17.7446C26.2735 16.662 25.8801 15.3045 24.8256 14.6893L23.6637 14.0126L23.6569 14.0087C22.6687 13.444 21.4031 13.7732 20.8164 14.7569C20.8161 14.7575 20.8158 14.758 20.8154 14.7585L20.7406 14.8833L20.7328 14.8965C20.5947 15.1353 20.4879 15.196 20.4511 15.2101C20.4143 15.196 20.3075 15.1353 20.1694 14.8965L20.0867 14.7585C20.0864 14.758 20.0861 14.7575 20.0857 14.7569Z" fill="#003569"/>
</svg>
